<svg xmlns="http://www.w3.org/2000/svg" width="90" height="90" viewBox="0 0 1080 1080" version="1.1"><path d="M 343.500 272.008 C 302.386 278.287, 279.137 298.550, 269.293 336.681 C 266.500 347.500, 266.500 347.500, 266.500 540 C 266.500 732.500, 266.500 732.500, 269.293 743.319 C 278.223 777.912, 297.088 796.777, 331.681 805.707 C 342.500 808.500, 342.500 808.500, 540.500 808.500 C 738.500 808.500, 738.500 808.500, 749.319 805.707 C 783.912 796.777, 802.777 777.912, 811.707 743.319 C 814.500 732.500, 814.500 732.500, 814.500 540 C 814.500 347.500, 814.500 347.500, 811.707 336.681 C 802.777 302.088, 783.912 283.223, 749.319 274.293 C 738.500 271.500, 738.500 271.500, 543.500 271.372 C 436.250 271.302, 346.250 271.588, 343.500 272.008 M 626.500 443.564 C 624.850 444.934, 618.325 449.979, 612 454.774 C 605.675 459.570, 599.633 464.277, 598.574 465.235 C 597.514 466.193, 595.827 467.238, 594.824 467.556 C 593.821 467.874, 593 468.518, 593 468.986 C 593 469.454, 591.313 470.866, 589.250 472.123 C 587.188 473.380, 584.912 475.217, 584.193 476.204 C 583.475 477.192, 582.409 478, 581.825 478 C 581.242 478, 579.130 479.375, 577.132 481.055 C 569.812 487.214, 568.822 488, 568.388 488 C 568.145 488, 564.303 490.813, 559.850 494.250 C 532.127 515.652, 527.101 519.502, 523.500 522.090 C 521.300 523.671, 518.887 525.487, 518.139 526.126 C 515.604 528.287, 507.985 534, 507.636 534 C 507.446 534, 506.010 531.975, 504.446 529.500 C 502.881 527.025, 501.241 525, 500.801 525 C 500.360 525, 500 524.508, 500 523.907 C 500 523.306, 498.317 520.681, 496.260 518.073 C 492.520 513.332, 492.520 513.332, 487.010 516.816 C 483.979 518.732, 480.825 520.949, 480 521.744 C 479.175 522.538, 476.645 524.383, 474.378 525.844 C 462.528 533.480, 458.407 536.297, 457.500 537.380 C 456.950 538.037, 454.250 539.856, 451.500 541.423 C 448.750 542.989, 445.516 545.162, 444.312 546.251 C 442.125 548.231, 442.125 548.231, 444.803 552.366 C 446.276 554.640, 447.714 556.725, 447.998 557 C 448.282 557.275, 450.843 560.731, 453.690 564.679 C 458.865 571.858, 458.865 571.858, 456.468 573.429 C 453.306 575.501, 452.772 575.424, 451 572.641 C 447.298 566.827, 442.039 559.325, 440.348 557.445 C 439.332 556.315, 438.050 554.695, 437.500 553.845 C 431.979 545.310, 430.616 543.364, 429.555 542.500 C 428.880 541.950, 427.124 539.700, 425.652 537.500 C 424.180 535.300, 421.395 531.250, 419.463 528.500 C 417.531 525.750, 414.381 521.250, 412.462 518.500 C 410.542 515.750, 407.433 511.475, 405.553 509 C 403.672 506.525, 402.103 504.163, 402.066 503.750 C 402.030 503.338, 401.281 502.213, 400.402 501.250 C 399.523 500.288, 397.160 497.248, 395.152 494.495 C 393.143 491.743, 391.050 489.513, 390.500 489.540 C 389.069 489.610, 379 496.033, 379 496.876 C 379 497.263, 376.750 498.894, 374 500.500 C 371.250 502.106, 369 503.727, 369 504.102 C 369 504.477, 367.988 505.038, 366.750 505.349 C 365.512 505.661, 362.700 507.615, 360.500 509.692 C 358.300 511.768, 356.500 513.285, 356.500 513.063 C 356.500 512.662, 350.464 516.258, 344.257 520.358 C 342.473 521.536, 341.011 523.106, 341.007 523.848 C 341 525.151, 351.184 540.472, 353.405 542.500 C 354.007 543.050, 355.159 544.776, 355.965 546.336 C 356.771 547.896, 358.458 550.281, 359.715 551.637 C 360.972 552.994, 362.011 554.417, 362.024 554.802 C 362.038 555.186, 363.594 557.525, 365.484 560 C 367.373 562.475, 371.274 567.875, 374.152 572 C 377.030 576.125, 380.424 580.620, 381.693 581.990 C 382.962 583.359, 384 584.966, 384 585.560 C 384 586.154, 385.575 588.480, 387.500 590.729 C 389.425 592.978, 391 595.196, 391.001 595.659 C 391.001 596.122, 392.495 598.178, 394.321 600.229 C 396.146 602.280, 398.283 605.192, 399.070 606.699 C 399.856 608.206, 401.087 610.128, 401.804 610.970 C 406.144 616.062, 412.963 625.691, 412.980 626.750 C 412.991 627.438, 413.370 628, 413.822 628 C 414.761 628, 420 635.708, 420 637.090 C 420 637.590, 420.385 638, 420.855 638 C 421.325 638, 423.009 640.056, 424.598 642.568 C 426.186 645.081, 429.064 648.095, 430.993 649.266 C 432.922 650.436, 434.798 651.831, 435.163 652.365 C 436.852 654.839, 453.948 654.657, 454.781 652.156 C 454.993 651.520, 455.760 651, 456.484 651 C 457.546 651, 469.055 643.096, 471 641.031 C 472.861 639.055, 484.036 631, 484.916 631 C 485.512 631, 486 630.582, 486 630.071 C 486 629.560, 488.008 627.787, 490.461 626.131 C 494.923 623.120, 494.923 623.120, 497.211 625.988 C 498.470 627.565, 502.200 632.757, 505.500 637.525 C 508.800 642.294, 512.958 648.064, 514.739 650.348 C 516.521 652.631, 518.742 655.962, 519.674 657.750 C 520.607 659.538, 521.914 661, 522.578 661 C 523.243 661, 524.054 661.698, 524.381 662.551 C 525.293 664.928, 533.467 668.101, 539.001 668.227 C 543.945 668.340, 555 665.284, 555 663.805 C 555 663.376, 556.688 661.948, 558.750 660.631 C 560.813 659.314, 563.522 657.335, 564.771 656.233 C 566.020 655.131, 568.604 653.165, 570.514 651.865 C 572.424 650.564, 573.989 649.163, 573.993 648.750 C 573.997 648.337, 574.653 648, 575.450 648 C 576.248 648, 577.260 647.438, 577.700 646.750 C 578.140 646.063, 584.760 640.789, 592.411 635.031 C 606.394 624.507, 609.610 621.978, 613.105 618.750 C 614.147 617.788, 615.369 617, 615.820 617 C 616.271 617, 618.480 615.425, 620.729 613.500 C 622.978 611.575, 625.119 610, 625.486 610 C 625.853 610, 627.476 608.678, 629.091 607.063 C 630.706 605.448, 632.922 603.842, 634.014 603.496 C 635.106 603.149, 636 602.505, 636 602.065 C 636 601.626, 637.893 600.013, 640.206 598.482 C 642.519 596.952, 645.552 594.642, 646.946 593.350 C 648.339 592.057, 650.061 591, 650.771 591 C 651.482 591, 652.288 590.414, 652.563 589.697 C 652.838 588.980, 655.576 586.618, 658.648 584.447 C 661.719 582.276, 665.317 579.537, 666.643 578.361 C 667.969 577.184, 670.613 575.159, 672.520 573.861 C 674.426 572.562, 675.989 571.163, 675.993 570.750 C 675.997 570.337, 676.575 570, 677.277 570 C 677.980 570, 679.969 568.763, 681.699 567.250 C 687.991 561.747, 690.263 559.930, 692.036 558.981 C 693.030 558.449, 694.442 557.441, 695.172 556.742 C 695.902 556.043, 699.874 553.003, 703.998 549.986 C 708.122 546.969, 712.397 543.755, 713.498 542.845 C 719.925 537.531, 739.009 523, 739.562 523 C 739.923 523, 741.182 522.118, 742.359 521.041 C 743.537 519.963, 746.525 517.489, 749 515.544 C 751.475 513.598, 754.175 511.396, 755 510.650 C 755.825 509.904, 757.850 508.447, 759.500 507.411 C 762.803 505.337, 764.919 503.046, 764.968 501.490 C 764.986 500.935, 762.862 498.172, 760.250 495.351 C 757.638 492.530, 754.150 488.540, 752.500 486.486 C 750.850 484.431, 747.362 480.480, 744.750 477.705 C 742.138 474.930, 740 472.399, 739.999 472.080 C 739.998 471.529, 738.960 470.314, 729.479 459.777 C 724.739 454.509, 724.885 454.467, 713.699 464.250 C 711.969 465.762, 710.002 467, 709.327 467 C 708.652 467, 707.740 467.607, 707.300 468.348 C 706.860 469.090, 704.587 470.949, 702.250 472.481 C 699.913 474.013, 698 475.656, 698 476.133 C 698 476.610, 697.483 477, 696.851 477 C 696.219 477, 693.182 479.005, 690.101 481.455 C 681.592 488.223, 679.291 490.014, 671.076 496.256 C 660.691 504.147, 658.241 506.066, 654.482 509.250 C 652.697 510.762, 650.833 512, 650.341 512 C 649.849 512, 648.031 513.237, 646.301 514.750 C 640.596 519.740, 638.366 521.530, 635.600 523.342 C 634.097 524.328, 632.109 525.797, 631.183 526.608 C 630.257 527.419, 626.800 530.083, 623.500 532.528 C 620.200 534.974, 611.488 541.592, 604.139 547.237 C 596.791 552.882, 590.051 557.950, 589.162 558.500 C 588.273 559.050, 587.086 559.973, 586.523 560.551 C 584.334 562.800, 576.120 569, 575.328 569 C 574.869 569, 573.244 570.324, 571.717 571.942 C 570.189 573.560, 568.053 575.166, 566.970 575.510 C 565.886 575.853, 565 576.543, 565 577.042 C 565 577.541, 563.710 578.616, 562.134 579.431 C 560.557 580.246, 558.195 581.816, 556.884 582.921 C 547.802 590.570, 547.865 590.536, 546.377 588.501 C 544.510 585.948, 544.646 584.260, 546.812 583.101 C 547.808 582.567, 550.838 580.302, 553.543 578.066 C 556.249 575.829, 559.034 574, 559.732 574 C 560.429 574, 561 573.588, 561 573.085 C 561 572.581, 563.813 570.109, 567.250 567.591 C 570.688 565.073, 574.175 562.416, 575 561.687 C 575.825 560.958, 578.069 559.273, 579.986 557.944 C 581.904 556.615, 584.216 554.846, 585.123 554.014 C 586.776 552.498, 598.294 543.819, 602.396 541 C 606.058 538.482, 612.259 533.625, 614.844 531.250 C 616.190 530.013, 617.676 529, 618.146 529 C 618.616 529, 619.823 528.212, 620.829 527.250 C 623.872 524.337, 626.860 522.001, 643.514 509.512 C 652.306 502.919, 659.982 497.069, 660.572 496.512 C 661.162 495.956, 663.275 494.383, 665.267 493.018 C 672.343 488.172, 672.202 485.694, 664.381 477.368 C 662.247 475.096, 659.150 471.549, 657.500 469.485 C 655.850 467.422, 652.625 463.748, 650.334 461.319 C 648.042 458.891, 645.450 455.809, 644.573 454.471 C 641.508 449.794, 632.692 441, 631.103 441.036 C 630.221 441.056, 628.150 442.193, 626.500 443.564" stroke="none" fill="#041319" fill-rule="evenodd"/><path d="M 607.936 460.184 C 596.146 469.085, 573.900 486.014, 558.500 497.804 C 543.100 509.595, 528.025 521.099, 525 523.368 C 521.975 525.638, 519.275 527.748, 519 528.058 C 518.725 528.367, 515.350 530.820, 511.500 533.509 C 507.650 536.197, 503.343 539.320, 501.928 540.448 C 500.514 541.577, 498.039 543.474, 496.428 544.664 C 478.392 557.992, 463.420 569.515, 458.747 573.666 C 456.683 575.500, 454.426 577, 453.732 577 C 453.038 577, 449.799 573.288, 446.534 568.750 C 443.270 564.212, 440.239 560.350, 439.799 560.167 C 439.360 559.983, 439 559.401, 439 558.872 C 439 558.344, 436.863 555.057, 434.250 551.569 C 431.637 548.080, 428.825 544.230, 428 543.012 C 427.175 541.794, 424.250 537.729, 421.500 533.977 C 418.750 530.226, 411.100 519.486, 404.500 510.111 C 397.900 500.737, 392.201 493.051, 391.835 493.033 C 391.177 493, 385.849 496.530, 364.500 511.139 C 347.721 522.621, 344 525.326, 344 526.043 C 344 526.405, 346.551 530.256, 349.668 534.601 C 352.786 538.945, 356.764 544.525, 358.509 547 C 360.254 549.475, 365.466 556.774, 370.091 563.220 C 382.467 580.469, 394.155 596.843, 397.001 600.919 C 400.646 606.139, 409.340 618.336, 410.246 619.500 C 410.674 620.050, 413.258 623.650, 415.989 627.500 C 418.720 631.350, 422.652 636.859, 424.727 639.743 C 428.970 645.639, 435.503 650.520, 441.206 652.055 C 445.147 653.117, 451.602 652.453, 452.570 650.887 C 452.871 650.399, 453.955 650, 454.977 650 C 456 650, 461.939 646.063, 468.176 641.250 C 478.834 633.026, 483.528 629.495, 502 615.806 C 509.702 610.098, 522.767 600.095, 536 589.774 C 549.696 579.092, 586.890 550.539, 596.554 543.289 C 600.374 540.423, 604.400 537.401, 605.500 536.574 C 606.600 535.746, 609.380 533.591, 611.677 531.785 C 613.974 529.978, 618.699 526.386, 622.177 523.802 C 625.655 521.218, 634.125 514.767, 641 509.467 C 647.875 504.166, 656.763 497.353, 660.750 494.326 C 664.737 491.299, 668 488.512, 668 488.133 C 668 487.493, 656.600 473.857, 638.421 452.750 C 634.276 447.938, 630.544 444, 630.128 444 C 629.712 444, 619.725 451.283, 607.936 460.184" stroke="none" fill="#ffffff" fill-rule="evenodd"/><path d="M 627.872 443.661 C 626.622 445.173, 626.692 445.201, 628.660 443.977 C 630.628 442.751, 631.071 442.931, 633.660 446.011 C 635.222 447.869, 643.827 457.925, 652.783 468.356 C 669.065 487.322, 669.065 487.322, 666.283 490.411 C 663.500 493.500, 663.500 493.500, 666.714 490.597 C 668.671 488.830, 669.649 487.200, 669.214 486.431 C 667.381 483.189, 631.382 442, 630.381 442 C 629.756 442, 628.627 442.747, 627.872 443.661 M 704.500 472.035 C 694.600 479.683, 686.050 486.296, 685.500 486.730 C 684.950 487.163, 678.425 492.117, 671 497.738 C 658.176 507.447, 632.876 526.735, 618.931 537.434 C 615.394 540.148, 603.275 549.358, 592 557.900 C 580.725 566.443, 566.382 577.385, 560.127 582.216 C 553.872 587.047, 548.393 591, 547.950 591 C 547.507 591, 546.231 589.837, 545.113 588.416 C 543.819 586.771, 542.611 586.114, 541.790 586.608 C 541.081 587.034, 530.918 594.744, 519.206 603.740 C 507.495 612.736, 497.294 620.334, 496.537 620.624 C 495.567 620.996, 497.845 624.884, 504.273 633.826 C 509.284 640.797, 513.645 646.725, 513.965 647 C 514.285 647.275, 515.393 648.850, 516.428 650.500 C 520.388 656.815, 526.427 663.177, 530.371 665.189 C 535.718 667.917, 543.360 668.035, 549.108 665.478 C 551.524 664.404, 564.975 654.743, 579 644.009 C 593.025 633.275, 606.300 623.161, 608.500 621.533 C 610.700 619.905, 613.047 618.106, 613.715 617.536 C 615.373 616.123, 616.826 615.002, 621.501 611.530 C 623.700 609.897, 625.950 608.194, 626.500 607.746 C 627.050 607.298, 632.675 602.999, 639 598.193 C 645.325 593.387, 655.450 585.660, 661.500 581.023 C 681.963 565.337, 692.258 557.506, 694.383 556.010 C 702.789 550.092, 762.471 503.998, 762.750 503.208 C 763.159 502.049, 725.090 457.994, 723.740 458.064 C 723.058 458.100, 714.400 464.386, 704.500 472.035 M 366.506 507.483 C 353.310 516.546, 342.341 524.476, 342.132 525.104 C 341.922 525.733, 344.170 524.477, 347.125 522.314 C 350.081 520.150, 360.375 513.040, 370 506.513 C 389.576 493.238, 392.662 490.999, 391.385 491.002 C 390.898 491.003, 379.703 498.419, 366.506 507.483 M 468.306 531.329 C 455.549 540.223, 444.827 547.797, 444.478 548.161 C 443.847 548.820, 446.594 553.117, 454.925 564.500 C 457.340 567.800, 459.459 570.676, 459.633 570.891 C 459.807 571.106, 464.123 568.116, 469.224 564.247 C 491.432 547.404, 494.558 545.022, 495.575 544.159 C 498.790 541.434, 506.874 536, 507.714 536 C 508.251 536, 509.547 534.987, 510.595 533.750 C 512.498 531.502, 512.498 531.502, 510.421 533.250 C 507.447 535.754, 506.867 535.507, 503.306 530.232 C 495.388 518.500, 492.823 515.005, 492.185 515.079 C 491.808 515.122, 481.063 522.434, 468.306 531.329 M 424.448 640.961 C 426.158 643.737, 431.459 649.143, 433.500 650.192 C 434.600 650.757, 434.003 649.933, 432.174 648.360 C 430.345 646.787, 427.645 644.132, 426.174 642.461 C 424.703 640.790, 423.927 640.115, 424.448 640.961" stroke="none" fill="#989ea0" fill-rule="evenodd"/><path d="M 645.198 460.750 C 646.027 461.712, 651.107 467.675, 656.487 474 C 661.867 480.325, 666.941 486.175, 667.763 487 C 669.091 488.333, 669.159 488.326, 668.379 486.938 C 667.187 484.821, 644.841 459, 644.200 459 C 643.919 459, 644.368 459.788, 645.198 460.750 M 386.536 495.116 C 384.356 496.754, 382.331 498.371, 382.036 498.708 C 381.178 499.688, 384.238 497.897, 387.500 495.508 C 389.150 494.300, 391.175 493.052, 392 492.735 C 393.333 492.222, 393.333 492.157, 392 492.147 C 391.175 492.142, 388.716 493.478, 386.536 495.116 M 370.628 505.994 C 363.772 510.900, 361.159 513.065, 364 511.488 C 366.615 510.036, 378 501.842, 378 501.412 C 378 500.739, 377.788 500.871, 370.628 505.994 M 350.750 519.613 C 343.097 525.079, 342.052 526.296, 343.989 527.493 C 344.532 527.829, 344.744 527.497, 344.460 526.756 C 344.135 525.909, 346.743 523.452, 351.471 520.151 C 357.808 515.726, 360.060 513.836, 358.750 514.039 C 358.613 514.060, 355.012 516.568, 350.750 519.613 M 529.750 594.588 C 526.587 597.104, 524 599.377, 524 599.639 C 524 599.902, 526.700 598.039, 530 595.500 C 535.176 591.517, 536.789 589.977, 535.750 590.007 C 535.612 590.012, 532.913 592.073, 529.750 594.588 M 516 605.093 C 512.425 607.872, 508.825 610.860, 508 611.732 C 507.175 612.604, 510.212 610.490, 514.750 607.034 C 521.930 601.565, 523.786 599.938, 522.750 600.020 C 522.612 600.031, 519.575 602.314, 516 605.093" stroke="none" fill="#d0d0d3" fill-rule="evenodd"/><path d="M 625.500 444.610 C 621.500 448.189, 621.500 448.189, 625.863 444.921 C 628.887 442.656, 630.633 441.936, 631.552 442.576 C 632.742 443.405, 663.302 478.755, 668.085 484.835 C 669.154 486.194, 670.308 487.026, 670.649 486.684 C 671.464 485.869, 669.186 482.482, 664.381 477.368 C 662.247 475.096, 659.150 471.549, 657.500 469.485 C 655.850 467.422, 652.625 463.748, 650.334 461.319 C 648.042 458.891, 645.450 455.809, 644.573 454.471 C 641.526 449.821, 632.696 441, 631.103 441.015 C 630.221 441.023, 627.700 442.641, 625.500 444.610 M 723.250 456.474 C 722.013 457.024, 721 457.781, 721 458.156 C 721 458.530, 719.425 459.810, 717.500 461 C 715.575 462.190, 714 463.607, 714 464.149 C 714 464.690, 715.959 463.529, 718.353 461.567 C 720.747 459.605, 723.210 458, 723.826 458 C 724.442 458, 732.907 467.337, 742.637 478.750 C 752.368 490.163, 761.011 500.300, 761.844 501.277 C 763.229 502.902, 763.064 503.314, 759.930 506.079 C 756.652 508.969, 756.633 509.023, 759.500 507.315 C 762.767 505.368, 764.918 503.077, 764.968 501.490 C 764.986 500.935, 762.862 498.172, 760.250 495.351 C 757.638 492.530, 754.150 488.540, 752.500 486.486 C 750.850 484.431, 747.362 480.480, 744.750 477.705 C 742.138 474.930, 740 472.399, 739.999 472.080 C 739.998 471.517, 737.834 468.998, 729.500 459.860 C 726.019 456.043, 725.208 455.604, 723.250 456.474 M 710.422 466.354 C 709.279 466.991, 707.604 468.253, 706.699 469.158 C 705.794 470.064, 703.466 471.785, 701.527 472.984 C 699.587 474.182, 698 475.576, 698 476.082 C 698 476.587, 697.483 477, 696.851 477 C 696.219 477, 693.182 479.005, 690.101 481.455 C 681.592 488.223, 679.291 490.014, 671.076 496.256 C 660.691 504.147, 658.241 506.066, 654.482 509.250 C 652.697 510.762, 650.833 512, 650.341 512 C 649.849 512, 648.087 513.237, 646.427 514.750 C 644.767 516.263, 642.304 518.238, 640.954 519.141 C 639.604 520.043, 638.731 521.024, 639.013 521.320 C 639.295 521.616, 644.470 518.024, 650.513 513.338 C 656.556 508.651, 666.675 500.928, 673 496.174 C 679.325 491.421, 684.950 487.172, 685.500 486.733 C 686.050 486.294, 692.125 481.642, 699 476.396 C 713.930 465.003, 715.809 463.351, 710.422 466.354 M 561 493.198 C 554.257 498.464, 545.372 506.033, 548 504.273 C 549.831 503.047, 567.125 489.987, 568.450 488.830 C 569.050 488.306, 569.050 488.023, 568.450 488.061 C 567.928 488.095, 564.575 490.407, 561 493.198 M 384.915 492.445 C 382.394 494.125, 379.574 496.263, 378.648 497.196 C 377.723 498.128, 375.174 499.898, 372.983 501.130 C 370.792 502.361, 369 503.687, 369 504.076 C 369 504.465, 367.988 505.038, 366.750 505.349 C 365.512 505.661, 362.812 507.509, 360.749 509.457 C 358.686 511.404, 356.886 512.922, 356.749 512.828 C 356.492 512.654, 349.962 516.590, 344.257 520.358 C 341.076 522.459, 340.032 525.283, 341.989 526.493 C 342.532 526.829, 342.738 526.480, 342.445 525.717 C 342.085 524.779, 348.937 519.506, 363.627 509.415 C 393.517 488.885, 390.737 490.538, 392.677 492.141 C 394.163 493.369, 394.196 493.299, 393.024 491.417 C 391.323 488.685, 390.379 488.805, 384.915 492.445 M 655.417 499.608 C 651.500 503.216, 651.500 503.216, 655.500 500.436 C 660.669 496.844, 660.411 497.078, 659.833 496.500 C 659.558 496.225, 657.571 497.624, 655.417 499.608 M 729 529.550 C 714.425 540.792, 701.150 551.158, 699.500 552.584 C 696.500 555.177, 696.500 555.177, 700.250 552.588 C 704.972 549.329, 710.854 544.998, 713.480 542.845 C 720.542 537.057, 739.017 523, 739.562 523 C 739.923 523, 741.182 522.118, 742.359 521.041 C 746.724 517.046, 753.214 512, 753.988 512 C 754.427 512, 755.045 511.325, 755.362 510.500 C 755.678 509.675, 755.839 509.025, 755.719 509.055 C 755.598 509.085, 743.575 518.308, 729 529.550 M 488 516.188 C 485.525 517.737, 482.347 519.941, 480.938 521.086 C 478.459 523.100, 477.007 524.087, 464.378 532.343 C 461.145 534.456, 458.050 536.723, 457.500 537.380 C 456.950 538.037, 454.250 539.856, 451.500 541.423 C 448.750 542.989, 445.516 545.162, 444.312 546.251 C 442.125 548.231, 442.125 548.231, 444.803 552.366 C 446.276 554.640, 447.726 556.725, 448.025 557 C 449.771 558.606, 458.438 571.638, 458.216 572.324 C 458.070 572.778, 458.419 572.859, 458.992 572.505 C 460.200 571.758, 459.980 571.334, 454.582 564 C 449.104 556.557, 444 549.141, 444 548.624 C 444 548.391, 454.889 540.679, 468.199 531.487 C 491.726 515.236, 492.440 514.828, 493.949 516.787 C 494.802 517.895, 497.975 522.424, 501 526.852 C 504.025 531.279, 506.950 534.917, 507.500 534.936 C 508.050 534.955, 510.300 533.365, 512.500 531.402 C 515.841 528.422, 515.970 528.185, 513.280 529.964 C 511.509 531.135, 509.795 532.522, 509.471 533.047 C 508.390 534.796, 507.312 534.035, 504.446 529.500 C 502.881 527.025, 501.241 525, 500.801 525 C 500.360 525, 500 524.502, 500 523.893 C 500 523.284, 498.313 520.668, 496.250 518.079 C 492.500 513.371, 492.500 513.371, 488 516.188 M 623.338 532.487 C 596.383 553.205, 590.574 557.626, 589.162 558.500 C 588.273 559.050, 587.086 559.984, 586.523 560.577 C 584.830 562.358, 576.738 568.429, 574.628 569.500 C 573.544 570.050, 572.452 571.124, 572.200 571.886 C 571.695 573.416, 628.259 531.007, 629.585 528.862 C 630.630 527.171, 629.095 528.062, 623.338 532.487 M 362 554.403 C 362 555.516, 367.851 563.790, 369.248 564.653 C 370.191 565.236, 366.856 560.153, 362.312 554.083 C 362.140 553.854, 362 553.998, 362 554.403 M 679.065 567.532 C 670.362 574.146, 664.395 579.626, 671.500 574.480 C 673.700 572.887, 675.650 571.227, 675.833 570.791 C 676.017 570.356, 676.704 570, 677.360 570 C 678.017 570, 679.913 568.763, 681.573 567.250 C 683.233 565.737, 685.696 563.736, 687.046 562.802 C 688.396 561.869, 689.050 561.109, 688.500 561.113 C 687.950 561.118, 683.704 564.006, 679.065 567.532 M 568 574.795 C 566.625 575.724, 565.050 576.969, 564.500 577.562 C 563.950 578.155, 562.150 579.462, 560.500 580.467 C 558.850 581.472, 556.825 582.901, 556 583.642 C 555.175 584.383, 552.982 586.203, 551.127 587.687 C 547.831 590.323, 547.722 590.340, 546.329 588.442 C 545.546 587.374, 545.115 585.687, 545.373 584.693 C 545.751 583.240, 545.568 583.113, 544.442 584.048 C 542.078 586.010, 546.561 591.983, 549.206 590.396 C 551.602 588.958, 571 573.852, 571 573.424 C 571 572.815, 570.778 572.917, 568 574.795 M 649.500 590.174 C 630.458 604.738, 629.362 605.665, 633.250 603.916 C 634.763 603.236, 636 602.361, 636 601.972 C 636 601.584, 637.893 600.013, 640.206 598.482 C 642.519 596.952, 645.552 594.642, 646.946 593.350 C 648.339 592.057, 650.061 591, 650.771 591 C 651.482 591, 652.288 590.414, 652.563 589.697 C 652.984 588.600, 657.094 585.385, 665.814 579.332 C 666.740 578.689, 667.273 577.940, 666.998 577.668 C 666.724 577.395, 658.850 583.023, 649.500 590.174 M 626.821 607.286 C 626.095 607.994, 623.700 609.906, 621.500 611.536 C 616.395 615.319, 614.625 617, 615.749 617 C 616.239 617, 618.480 615.425, 620.729 613.500 C 622.978 611.575, 625.103 610, 625.451 610 C 625.799 610, 627.050 609.100, 628.230 608 C 629.411 606.900, 629.874 606, 629.260 606 C 628.646 606, 627.548 606.579, 626.821 607.286 M 491.500 624.577 C 489.850 625.989, 489.175 626.819, 490 626.420 C 490.825 626.022, 492.231 625.070, 493.125 624.306 C 495.027 622.679, 495.788 623.491, 505.500 637.525 C 508.800 642.294, 512.958 648.064, 514.739 650.348 C 516.521 652.631, 518.742 655.962, 519.674 657.750 C 520.607 659.538, 521.914 661, 522.578 661 C 523.243 661, 524.052 661.694, 524.378 662.542 C 525.130 664.502, 532.712 667.981, 536 667.876 C 538.276 667.802, 538.232 667.730, 535.500 667.065 C 528.595 665.384, 522.373 659.980, 516.428 650.500 C 515.393 648.850, 514.278 647.275, 513.950 647 C 513.622 646.725, 509.417 640.987, 504.604 634.250 C 499.792 627.513, 495.549 622.002, 495.177 622.005 C 494.805 622.008, 493.150 623.165, 491.500 624.577 M 580.499 642.766 C 554.112 663.028, 548.226 666.918, 543.716 667.079 C 542.417 667.125, 542.066 667.383, 542.867 667.701 C 544.466 668.337, 555 664.954, 555 663.805 C 555 663.376, 556.688 661.948, 558.750 660.631 C 560.813 659.314, 563.522 657.335, 564.771 656.233 C 566.020 655.131, 568.604 653.165, 570.514 651.865 C 572.424 650.564, 573.989 649.163, 573.993 648.750 C 573.997 648.337, 574.575 648, 575.278 648 C 575.981 648, 577.263 647.212, 578.128 646.250 C 578.992 645.288, 585.807 640, 593.272 634.500 C 600.736 629, 607.090 623.938, 607.390 623.250 C 607.691 622.563, 607.839 622.007, 607.719 622.016 C 607.598 622.025, 595.349 631.363, 580.499 642.766 M 423 640.139 C 423 641.246, 428.072 647.359, 430.191 648.806 C 431.461 649.674, 430.511 648.160, 428.080 645.442 C 425.648 642.724, 423.511 640.313, 423.330 640.083 C 423.148 639.854, 423 639.879, 423 640.139 M 435 651.786 C 435 653.166, 437.560 654.020, 441.332 653.898 C 444.500 653.795, 444.500 653.795, 441.500 653.021 C 439.850 652.596, 437.712 651.919, 436.750 651.517 C 435.763 651.105, 435 651.222, 435 651.786 M 452.971 652.039 C 452.162 652.551, 450.289 652.976, 448.809 652.985 C 447.329 652.993, 445.886 653.376, 445.602 653.835 C 445.014 654.786, 453.671 653.663, 454.676 652.657 C 455.805 651.529, 454.516 651.062, 452.971 652.039" stroke="none" fill="#04141c" fill-rule="evenodd"/></svg>